<svg xmlns="http://www.w3.org/2000/svg" width="400" height="400" viewBox="0 0 400 400" fill="none">
  <rect width="400" height="400" rx="80" fill="#1E40AF"/>
  <path d="M120 280V160C120 148.954 128.954 140 140 140H180C191.046 140 200 148.954 200 160V280" stroke="white" stroke-width="24" stroke-linecap="round" stroke-linejoin="round" fill="none"/>
  <path d="M200 280V120C200 108.954 208.954 100 220 100H260C271.046 100 280 108.954 280 120V280" stroke="white" stroke-width="24" stroke-linecap="round" stroke-linejoin="round" fill="none"/>
  <path d="M140 280L260 280" stroke="white" stroke-width="24" stroke-linecap="round"/>
  <circle cx="160" cy="180" r="14" fill="white"/>
  <circle cx="240" cy="140" r="14" fill="white"/>
  <path d="M160 180L240 140" stroke="white" stroke-width="8" stroke-linecap="round" opacity="0.6"/>
  <path d="M270 180L300 160" stroke="white" stroke-width="20" stroke-linecap="round" opacity="0.4"/>
  <path d="M290 170L310 190" stroke="white" stroke-width="12" stroke-linecap="round" opacity="0.3"/>
</svg>
